<svg width="21" height="19" viewBox="0 0 21 19" fill="none" xmlns="http://www.w3.org/2000/svg">
<path d="M1.36719 0.750049C1.28511 0.749017 1.20363 0.764163 1.12741 0.794622C1.05118 0.825081 0.981707 0.870256 0.922943 0.927569C0.86418 0.984881 0.817282 1.05321 0.784927 1.12865C0.752572 1.20409 0.735395 1.28516 0.734375 1.36724C0.735034 1.40381 0.737642 1.44032 0.742187 1.47661L3.39453 17.5743C3.42735 17.7717 3.52879 17.9513 3.68099 18.0814C3.83318 18.2114 4.02638 18.2836 4.22656 18.2852H16.9492C17.0988 18.2872 17.2441 18.2355 17.3588 18.1394C17.4735 18.0434 17.5499 17.9094 17.5742 17.7618L20.2266 1.48052C20.2525 1.31741 20.2128 1.15067 20.1162 1.01673C20.0196 0.882786 19.8739 0.792527 19.7109 0.765674C19.6747 0.760989 19.6381 0.75838 19.6016 0.757862L1.36719 0.750049ZM12.5352 12.3829H8.47266L7.375 6.64067H13.5195L12.5352 12.3829Z" fill="#3B82F6"/>
</svg>
