<svg width="21" height="20" viewBox="0 0 21 20" fill="none" xmlns="http://www.w3.org/2000/svg">
<path d="M7.29297 16.0234C7.29297 16.1016 7.20312 16.1641 7.08984 16.1641C6.96094 16.1758 6.87109 16.1133 6.87109 16.0234C6.87109 15.9453 6.96094 15.8828 7.07422 15.8828C7.19141 15.8711 7.29297 15.9336 7.29297 16.0234ZM6.07812 15.8477C6.05078 15.9258 6.12891 16.0156 6.24609 16.0391C6.34766 16.0781 6.46484 16.0391 6.48828 15.9609C6.51172 15.8828 6.4375 15.793 6.32031 15.7578C6.21875 15.7305 6.10547 15.7695 6.07812 15.8477ZM7.80469 15.7812C7.69141 15.8086 7.61328 15.8828 7.625 15.9727C7.63672 16.0508 7.73828 16.1016 7.85547 16.0742C7.96875 16.0469 8.04688 15.9727 8.03516 15.8945C8.02344 15.8203 7.91797 15.7695 7.80469 15.7812ZM10.375 0.8125C4.95703 0.8125 0.8125 4.92578 0.8125 10.3438C0.8125 14.6758 3.53906 18.3828 7.43359 19.6875C7.93359 19.7773 8.10938 19.4688 8.10938 19.2148C8.10938 18.9727 8.09766 17.6367 8.09766 16.8164C8.09766 16.8164 5.36328 17.4023 4.78906 15.6523C4.78906 15.6523 4.34375 14.5156 3.70312 14.2227C3.70312 14.2227 2.80859 13.6094 3.76562 13.6211C3.76562 13.6211 4.73828 13.6992 5.27344 14.6289C6.12891 16.1367 7.5625 15.7031 8.12109 15.4453C8.21094 14.8203 8.46484 14.3867 8.74609 14.1289C6.5625 13.8867 4.35938 13.5703 4.35938 9.8125C4.35938 8.73828 4.65625 8.19922 5.28125 7.51172C5.17969 7.25781 4.84766 6.21094 5.38281 4.85938C6.19922 4.60547 8.07812 5.91406 8.07812 5.91406C8.85938 5.69531 9.69922 5.58203 10.5312 5.58203C11.3633 5.58203 12.2031 5.69531 12.9844 5.91406C12.9844 5.91406 14.8633 4.60156 15.6797 4.85938C16.2148 6.21484 15.8828 7.25781 15.7812 7.51172C16.4062 8.20312 16.7891 8.74219 16.7891 9.8125C16.7891 13.582 14.4883 13.8828 12.3047 14.1289C12.6641 14.4375 12.9688 15.0234 12.9688 15.9414C12.9688 17.2578 12.957 18.8867 12.957 19.207C12.957 19.4609 13.1367 19.7695 13.6328 19.6797C17.5391 18.3828 20.1875 14.6758 20.1875 10.3438C20.1875 4.92578 15.793 0.8125 10.375 0.8125ZM4.60938 14.2852C4.55859 14.3242 4.57031 14.4141 4.63672 14.4883C4.69922 14.5508 4.78906 14.5781 4.83984 14.5273C4.89062 14.4883 4.87891 14.3984 4.8125 14.3242C4.75 14.2617 4.66016 14.2344 4.60938 14.2852ZM4.1875 13.9688C4.16016 14.0195 4.19922 14.082 4.27734 14.1211C4.33984 14.1602 4.41797 14.1484 4.44531 14.0938C4.47266 14.043 4.43359 13.9805 4.35547 13.9414C4.27734 13.918 4.21484 13.9297 4.1875 13.9688ZM5.45312 15.3594C5.39062 15.4102 5.41406 15.5273 5.50391 15.6016C5.59375 15.6914 5.70703 15.7031 5.75781 15.6406C5.80859 15.5898 5.78516 15.4727 5.70703 15.3984C5.62109 15.3086 5.50391 15.2969 5.45312 15.3594ZM5.00781 14.7852C4.94531 14.8242 4.94531 14.9258 5.00781 15.0156C5.07031 15.1055 5.17578 15.1445 5.22656 15.1055C5.28906 15.0547 5.28906 14.9531 5.22656 14.8633C5.17188 14.7734 5.07031 14.7344 5.00781 14.7852Z" fill="white"/>
</svg>
