<svg width="20" height="21" viewBox="0 0 20 21" fill="none" xmlns="http://www.w3.org/2000/svg">
<path d="M7.5 16.4333C3.91667 17.6 3.91667 14.35 2.5 13.9333M12.5 18.1V15.1833C12.5 14.35 12.5833 14.0167 12.0833 13.5167C14.4167 13.2667 16.6667 12.35 16.6667 8.51666C16.6657 7.5208 16.2771 6.56442 15.5833 5.85C15.9087 4.98497 15.8788 4.02635 15.5 3.18333C15.5 3.18333 14.5833 2.93333 12.5833 4.26666C10.8894 3.82549 9.11064 3.82549 7.41667 4.26666C5.41667 2.93333 4.5 3.18333 4.5 3.18333C4.12123 4.02635 4.09128 4.98497 4.41667 5.85C3.72288 6.56442 3.33435 7.5208 3.33333 8.51666C3.33333 12.35 5.58333 13.2667 7.91667 13.5167C7.41667 14.0167 7.41667 14.5167 7.5 15.1833V18.1" stroke="white" stroke-width="1.5" stroke-linecap="round" stroke-linejoin="round"/>
</svg>
