<svg width="21" height="21" viewBox="0 0 21 21" fill="none" xmlns="http://www.w3.org/2000/svg">
<path d="M20.168 8.49228L20.1406 8.42196L17.418 1.32118C17.3633 1.18173 17.2656 1.06376 17.1367 0.983681C17.043 0.923134 16.9375 0.885439 16.8242 0.873915C16.7109 0.862392 16.6016 0.877158 16.4961 0.917275C16.3906 0.957119 16.2969 1.02118 16.2188 1.10399C16.1445 1.18681 16.0898 1.28642 16.0586 1.39462L14.2227 7.01962H6.78125L4.94141 1.39462C4.91016 1.28642 4.85547 1.1872 4.78125 1.10438C4.70313 1.02157 4.60938 0.9579 4.50391 0.918056C4.40078 0.878017 4.28828 0.863173 4.17656 0.87458C4.06485 0.885947 3.95742 0.923134 3.8625 0.983681C3.73594 1.06376 3.63789 1.18173 3.58281 1.32118L0.861993 8.42196L0.833712 8.49228C0.442032 9.51571 0.393751 10.6407 0.696212 11.6954C0.998829 12.7462 1.63555 13.6759 2.51055 14.336L2.5211 14.3438L2.54414 14.3595L6.6836 17.4649L8.73828 19.0157L9.98828 19.961C10.1328 20.0352 10.3125 20.129 10.4961 20.129C10.6797 20.129 10.8594 20.0352 11.0039 19.961L12.2539 19.0157L14.3086 17.4649L18.4766 14.3438L18.4883 14.3321C19.3633 13.672 20 12.7462 20.2695 11.6954C20.6055 10.6407 20.5586 9.51571 20.168 8.49228Z" fill="#F97316"/>
</svg>
