<svg width="8" height="5" viewBox="0 0 8 5" fill="none" xmlns="http://www.w3.org/2000/svg">
<mask id="path-1-inside-1_6188_1335" fill="white">
<path fill-rule="evenodd" clip-rule="evenodd" d="M0.460905 0.593709C0.648361 0.406264 0.952275 0.406264 1.13973 0.593709L4.00032 3.45431L6.86092 0.593709C7.04833 0.406264 7.35222 0.406264 7.53974 0.593709C7.72716 0.781165 7.72716 1.08508 7.53974 1.27254L4.33973 4.47254C4.2497 4.56255 4.12762 4.61312 4.00032 4.61312C3.87301 4.61312 3.75092 4.56255 3.6609 4.47254L0.460905 1.27254C0.273448 1.08508 0.273448 0.781165 0.460905 0.593709Z"/>
</mask>
<path fill-rule="evenodd" clip-rule="evenodd" d="M0.460905 0.593709C0.648361 0.406264 0.952275 0.406264 1.13973 0.593709L4.00032 3.45431L6.86092 0.593709C7.04833 0.406264 7.35222 0.406264 7.53974 0.593709C7.72716 0.781165 7.72716 1.08508 7.53974 1.27254L4.33973 4.47254C4.2497 4.56255 4.12762 4.61312 4.00032 4.61312C3.87301 4.61312 3.75092 4.56255 3.6609 4.47254L0.460905 1.27254C0.273448 1.08508 0.273448 0.781165 0.460905 0.593709Z" fill="#09090B"/>
<path d="M0.460905 0.593709L-0.246182 -0.113418L-0.246202 -0.113398L0.460905 0.593709ZM1.13973 0.593709L1.84684 -0.113396L1.84682 -0.113418L1.13973 0.593709ZM4.00032 3.45431L3.29321 4.16141L4.00032 4.86852L4.70742 4.16141L4.00032 3.45431ZM6.86092 0.593709L7.56802 1.30082L7.56808 1.30076L6.86092 0.593709ZM7.53974 0.593709L8.24693 -0.113317L8.24671 -0.113539L7.53974 0.593709ZM7.53974 1.27254L8.24685 1.97964L8.24693 1.97956L7.53974 1.27254ZM4.33973 4.47254L5.0468 5.17968L5.04684 5.17964L4.33973 4.47254ZM3.6609 4.47254L4.36801 3.76543L3.6609 4.47254ZM0.460905 1.27254L-0.246202 1.97964H-0.246202L0.460905 1.27254ZM1.16799 1.30084C0.964927 1.50389 0.635708 1.50389 0.432645 1.30084L1.84682 -0.113418C1.26884 -0.691361 0.331794 -0.691361 -0.246182 -0.113418L1.16799 1.30084ZM0.432623 1.30081L3.29321 4.16141L4.70743 2.7472L1.84684 -0.113396L0.432623 1.30081ZM4.70742 4.16141L7.56802 1.30082L6.15381 -0.113398L3.29321 2.7472L4.70742 4.16141ZM7.56808 1.30076C7.36485 1.50403 7.03564 1.50374 6.83278 1.30096L8.24671 -0.113539C7.66881 -0.691209 6.73181 -0.691499 6.15375 -0.113337L7.56808 1.30076ZM6.83256 1.30074C6.62955 1.09769 6.62955 0.76856 6.83256 0.56551L8.24693 1.97956C8.82476 1.4016 8.82476 0.464645 8.24693 -0.113317L6.83256 1.30074ZM6.83264 0.565428L3.63263 3.76543L5.04684 5.17964L8.24685 1.97964L6.83264 0.565428ZM3.63267 3.76539C3.73014 3.66793 3.86238 3.61312 4.00032 3.61312V5.61312C4.39287 5.61312 4.76927 5.45718 5.0468 5.17968L3.63267 3.76539ZM4.00032 3.61312C4.13822 3.61312 4.27049 3.6679 4.36801 3.76543L2.9538 5.17964C3.23136 5.4572 3.6078 5.61312 4.00032 5.61312V3.61312ZM4.36801 3.76543L1.16801 0.565429L-0.246202 1.97964L2.9538 5.17964L4.36801 3.76543ZM1.16801 0.565429C1.37108 0.768497 1.37108 1.09775 1.16801 1.30082L-0.246202 -0.113398C-0.824183 0.464583 -0.824183 1.40166 -0.246202 1.97964L1.16801 0.565429Z" fill="#09090B" mask="url(#path-1-inside-1_6188_1335)"/>
</svg>
