<svg width="18" height="18" viewBox="0 0 18 18" fill="none" xmlns="http://www.w3.org/2000/svg">
<path d="M11.2998 6.50005L2.99147 1.65338C2.82054 1.55371 2.62634 1.50089 2.42847 1.50025C2.2306 1.49961 2.03606 1.55116 1.86448 1.64972C1.6929 1.74827 1.55034 1.89033 1.4512 2.06158C1.35206 2.23282 1.29984 2.42718 1.2998 2.62505V6.00338C1.29972 6.15363 1.34026 6.3011 1.41713 6.4302C1.494 6.55929 1.60434 6.6652 1.73647 6.73672L11.2998 11.9167L15.8865 9.24172C16.0123 9.1683 16.1167 9.06318 16.1892 8.93685C16.2617 8.81052 16.2998 8.66739 16.2998 8.52172V5.54172C16.2998 5.34385 16.2475 5.14948 16.1484 4.97824C16.0493 4.807 15.9067 4.66494 15.7351 4.56638C15.5636 4.46783 15.369 4.41627 15.1711 4.41692C14.9733 4.41756 14.7791 4.47038 14.6081 4.57005L11.2998 6.50005ZM11.2998 6.50005V15.3751C11.2998 15.5729 11.2475 15.7673 11.1484 15.9385C11.0493 16.1098 10.9067 16.2518 10.7351 16.3504C10.5636 16.4489 10.369 16.5005 10.1711 16.4999C9.97327 16.4992 9.77907 16.4464 9.60814 16.3467L6.71314 14.6575C6.58745 14.5842 6.48315 14.4792 6.41063 14.353C6.33812 14.2269 6.29991 14.0839 6.2998 13.9384V4.00005" stroke="#00CB69" stroke-width="1.5" stroke-linecap="round" stroke-linejoin="round"/>
</svg>
