<svg width="19" height="15" viewBox="0 0 19 15" fill="none" xmlns="http://www.w3.org/2000/svg">
<path d="M3.16667 13.8333L5.46417 7.70742C5.5237 7.54861 5.63027 7.41174 5.76964 7.3151C5.90902 7.21846 6.07456 7.16665 6.24417 7.16659H16.5M3.16667 13.8333H14.855C15.2427 13.8331 15.6183 13.6979 15.917 13.4507C16.2158 13.2035 16.419 12.8599 16.4917 12.4791L17.3217 8.13658C17.3415 8.01726 17.3351 7.89504 17.303 7.77842C17.2708 7.66181 17.2137 7.55359 17.1355 7.46129C17.0573 7.36899 16.96 7.29482 16.8502 7.24392C16.7405 7.19303 16.621 7.16664 16.5 7.16659M3.16667 13.8333C2.72464 13.8333 2.30072 13.6577 1.98816 13.3451C1.67559 13.0325 1.5 12.6086 1.5 12.1666V2.99992C1.5 2.55789 1.67559 2.13397 1.98816 1.82141C2.30072 1.50885 2.72464 1.33325 3.16667 1.33325H6.5L9 3.83325H14.8333C15.2754 3.83325 15.6993 4.00885 16.0118 4.32141C16.3244 4.63397 16.5 5.05789 16.5 5.49992V7.16659" stroke="#0089F2" stroke-width="1.5" stroke-linecap="round" stroke-linejoin="round"/>
</svg>
