<svg width="14" height="18" viewBox="0 0 14 18" fill="none" xmlns="http://www.w3.org/2000/svg">
<path d="M8.4668 1.5V4.83333C8.4668 5.05435 8.55459 5.26631 8.71087 5.42259C8.86716 5.57887 9.07912 5.66667 9.30013 5.66667H12.6335" stroke="#6B7280" stroke-width="1.5" stroke-linecap="round" stroke-linejoin="round"/>
<path d="M0.966797 9V3.16667C0.966797 2.72464 1.14239 2.30072 1.45495 1.98816C1.76751 1.67559 2.19144 1.5 2.63346 1.5H8.4668L12.6335 5.66667V9M10.1335 14H11.3835C11.715 14 12.0329 13.8683 12.2673 13.6339C12.5018 13.3995 12.6335 13.0815 12.6335 12.75C12.6335 12.4185 12.5018 12.1005 12.2673 11.8661C12.0329 11.6317 11.715 11.5 11.3835 11.5H10.1335V16.5M6.80013 11.5V16.5M0.966797 11.5H3.4668L0.966797 16.5H3.4668" stroke="#6B7280" stroke-width="1.5" stroke-linecap="round" stroke-linejoin="round"/>
</svg>
