<svg width="16" height="16" viewBox="0 0 16 16" fill="none" xmlns="http://www.w3.org/2000/svg">
<path d="M13.9997 2H1.99967C1.63148 2 1.33301 2.29848 1.33301 2.66667V4.66667C1.33301 5.03486 1.63148 5.33333 1.99967 5.33333H13.9997C14.3679 5.33333 14.6663 5.03486 14.6663 4.66667V2.66667C14.6663 2.29848 14.3679 2 13.9997 2Z" stroke="#FAFAFA" stroke-width="1.5" stroke-linecap="round" stroke-linejoin="round"/>
<path d="M2.66699 5.33333V12.6667C2.66699 13.0203 2.80747 13.3594 3.05752 13.6095C3.30756 13.8595 3.6467 14 4.00033 14H12.0003C12.3539 14 12.6931 13.8595 12.9431 13.6095C13.1932 13.3594 13.3337 13.0203 13.3337 12.6667V5.33333" stroke="#FAFAFA" stroke-width="1.5" stroke-linecap="round" stroke-linejoin="round"/>
<path d="M6.33301 11.3333L9.66634 8" stroke="#FAFAFA" stroke-width="1.5" stroke-linecap="round" stroke-linejoin="round"/>
<path d="M6.33301 8L9.66634 11.3333" stroke="#FAFAFA" stroke-width="1.5" stroke-linecap="round" stroke-linejoin="round"/>
</svg>
