<svg width="16" height="16" viewBox="0 0 16 16" fill="none" xmlns="http://www.w3.org/2000/svg">
<path d="M13.3327 4.66669H7.33268M9.33268 11.3334H3.33268M9.33268 11.3334C9.33268 12.4379 10.2281 13.3334 11.3327 13.3334C12.4373 13.3334 13.3327 12.4379 13.3327 11.3334C13.3327 10.2288 12.4373 9.33335 11.3327 9.33335C10.2281 9.33335 9.33268 10.2288 9.33268 11.3334ZM6.66602 4.66669C6.66602 5.77126 5.77058 6.66669 4.66602 6.66669C3.56145 6.66669 2.66602 5.77126 2.66602 4.66669C2.66602 3.56212 3.56145 2.66669 4.66602 2.66669C5.77058 2.66669 6.66602 3.56212 6.66602 4.66669Z" stroke="#FAFAFA" stroke-linecap="round" stroke-linejoin="round"/>
</svg>
