<?xml version="1.0" encoding="UTF-8"?>
<svg version="1.1" xmlns="http://www.w3.org/2000/svg" width="80" height="48">
<path d="M0 0 C1.65 0 3.3 0 5 0 C6.32 4.62 7.64 9.24 9 14 C9.66 12.02 10.32 10.04 11 8 C11.97568284 5.32358561 12.98964413 2.66366547 14 0 C15.65 0.33 17.3 0.66 19 1 C19.50636607 2.74816858 20.00484619 4.49862263 20.5 6.25 C20.7784375 7.22453125 21.056875 8.1990625 21.34375 9.203125 C22 12 22 12 22 16 C22.66 16 23.32 16 24 16 C24.103125 14.845 24.20625 13.69 24.3125 12.5 C24.86035113 7.98828481 26.2774879 4.19394251 28 0 C30.475 0.495 30.475 0.495 33 1 C32.05033806 4.43995608 31.08878965 7.87647784 30.125 11.3125 C29.85558594 12.28896484 29.58617188 13.26542969 29.30859375 14.27148438 C29.04433594 15.20927734 28.78007813 16.14707031 28.5078125 17.11328125 C28.26691895 17.97735596 28.02602539 18.84143066 27.77783203 19.73168945 C27 22 27 22 25 25 C22.375 25.1875 22.375 25.1875 20 25 C19.49363393 23.25183142 18.99515381 21.50137737 18.5 19.75 C18.2215625 18.77546875 17.943125 17.8009375 17.65625 16.796875 C17 14 17 14 17 10 C16.34 10 15.68 10 15 10 C14.95101562 10.58007812 14.90203125 11.16015625 14.8515625 11.7578125 C14.40350595 16.43923092 13.701979 20.57485459 12 25 C10.35 25 8.7 25 7 25 C-0.27090841 7.65316267 -0.27090841 7.65316267 0 0 Z " fill="#C0CAD9" transform="translate(25,0)"/>
<path d="M0 0 C4.03455943 1.29703614 7.90821756 2.79493819 11.8125 4.4375 C32.28023758 12.36200779 51.45307673 10.34582638 72 4 C72 5.32 72 6.64 72 8 C60.94563231 16.99223793 45.98104469 18.21110727 32.31542969 17.23925781 C20.55831105 16.02437208 7.91105111 11.06242475 0 2 C0 1.34 0 0.68 0 0 Z " fill="#FFA218" transform="translate(0,31)"/>
<path d="M0 0 C0.94746094 -0.04898438 1.89492187 -0.09796875 2.87109375 -0.1484375 C5.5625 0.375 5.5625 0.375 7.86328125 2.28515625 C10.22733338 6.58392691 10.23317827 10.35247975 10.3125 15.1875 C10.34214844 16.07115234 10.37179688 16.95480469 10.40234375 17.86523438 C10.4727039 20.03467218 10.51990607 22.20483948 10.5625 24.375 C8.6875 25 8.6875 25 6.5625 25.375 C5.9025 24.715 5.2425 24.055 4.5625 23.375 C3.5725 24.035 2.5825 24.695 1.5625 25.375 C-5.41513578 26.03953674 -5.41513578 26.03953674 -8.9375 23.75 C-10.91948314 20.61186002 -11.10814058 19.02626535 -10.4375 15.375 C-8.5 12.5 -8.5 12.5 -5.4375 10.375 C-2.38873812 9.97223714 0.50769396 10.07550921 3.5625 10.375 C3.5625 8.725 3.5625 7.075 3.5625 5.375 C-0.59888263 5.29340426 -4.3847484 5.39251476 -8.4375 6.375 C-8.4375 4.725 -8.4375 3.075 -8.4375 1.375 C-5.4387496 0.37541653 -3.14399444 0.11091432 0 0 Z M-4.4375 15.375 C-4.4375 17.025 -4.4375 18.675 -4.4375 20.375 C-1.38955066 21.30631785 -0.01699326 21.67257762 2.875 20.1875 C5.01677902 18.29981262 5.01677902 18.29981262 4.5625 14.375 C-0.08802872 14.10567479 -0.08802872 14.10567479 -4.4375 15.375 Z " fill="#C0CAD9" transform="translate(13.4375,-0.375)"/>
<path d="M0 0 C0.99 0.66 1.98 1.32 3 2 C3 2.99 3 3.98 3 5 C-0.3 5 -3.6 5 -7 5 C-7.33 5.99 -7.66 6.98 -8 8 C-7.30132812 8.25394531 -6.60265625 8.50789062 -5.8828125 8.76953125 C-4.51769531 9.28580078 -4.51769531 9.28580078 -3.125 9.8125 C-2.22007813 10.14894531 -1.31515625 10.48539063 -0.3828125 10.83203125 C2 12 2 12 4 15 C3.77777778 21.22222222 3.77777778 21.22222222 1.296875 23.703125 C-1.54257834 25.30635376 -3.38366905 25.33736741 -6.625 25.25 C-7.58664063 25.23453125 -8.54828125 25.2190625 -9.5390625 25.203125 C-12 25 -12 25 -14 24 C-14 22.35 -14 20.7 -14 19 C-13.484375 19.165 -12.96875 19.33 -12.4375 19.5 C-9.26636124 20.15049 -6.22781666 20.0620734 -3 20 C-2.67 19.01 -2.34 18.02 -2 17 C-2.61488281 16.74605469 -3.22976562 16.49210937 -3.86328125 16.23046875 C-4.67152344 15.88628906 -5.47976562 15.54210938 -6.3125 15.1875 C-7.11300781 14.85105469 -7.91351563 14.51460937 -8.73828125 14.16796875 C-11.00861504 12.99555113 -12.41159399 11.99053412 -14 10 C-14.51924297 6.51365432 -14.39852706 4.68836492 -12.625 1.625 C-8.64499595 -0.83881203 -4.57011742 -0.65614374 0 0 Z " fill="#C0CAD9" transform="translate(73,0)"/>
<path d="M0 0 C0.31330487 5.22174778 -0.11984864 8.57691041 -3 13 C-4.98 13.99 -4.98 13.99 -7 15 C-6.01 11.37 -5.02 7.74 -4 4 C-7.96 4 -11.92 4 -16 4 C-10.20970613 -1.79029387 -7.67306482 -1.15095972 0 0 Z " fill="#FFA218" transform="translate(80,30)"/>
</svg>
