<?xml version="1.0" encoding="UTF-8"?>
<svg version="1.1" xmlns="http://www.w3.org/2000/svg" width="48" height="48">
<path d="M0 0 C1.2365332 -0.04930664 1.2365332 -0.04930664 2.49804688 -0.09960938 C3.29146484 -0.10669922 4.08488281 -0.11378906 4.90234375 -0.12109375 C5.62800537 -0.13454834 6.35366699 -0.14800293 7.10131836 -0.16186523 C9.0625 0.4375 9.0625 0.4375 10.63793945 2.46069336 C12.38326197 6.10777433 13.73129122 9.79485377 15.015625 13.625 C15.41234406 14.79518677 15.41234406 14.79518677 15.81707764 15.98901367 C16.37143591 17.63191581 16.9225864 19.27590343 17.47070312 20.92089844 C18.31121056 23.43364515 19.17072019 25.93936325 20.03125 28.4453125 C20.56888349 30.04648089 21.10538084 31.64803131 21.640625 33.25 C21.89886047 33.99596436 22.15709595 34.74192871 22.42315674 35.51049805 C23.73466479 39.51500138 24.39314512 42.37574068 23.0625 46.4375 C6.31182735 47.66440583 6.31182735 47.66440583 0.796875 44.65625 C-1.34632443 42.69280278 -3.20518804 40.76805784 -4.9375 38.4375 C-6.2575 41.0775 -7.5775 43.7175 -8.9375 46.4375 C-13.5575 46.4375 -18.1775 46.4375 -22.9375 46.4375 C-24.06264039 40.81179807 -24.06264039 40.81179807 -22.8894043 37.3215332 C-22.63551437 36.54755692 -22.38162445 35.77358063 -22.12004089 34.97615051 C-21.83679459 34.15515366 -21.55354828 33.3341568 -21.26171875 32.48828125 C-20.83388847 31.20753975 -20.83388847 31.20753975 -20.39741516 29.90092468 C-19.79349406 28.1012223 -19.183755 26.30346313 -18.56860352 24.50756836 C-17.62625381 21.75366412 -16.7033406 18.99381709 -15.78320312 16.23242188 C-15.19384086 14.48399284 -14.60338342 12.7359325 -14.01171875 10.98828125 C-13.59595833 9.74767693 -13.59595833 9.74767693 -13.17179871 8.48200989 C-10.30949272 0.1724618 -8.11106227 0.056809 0 0 Z M-0.9375 22.4375 C-1.5975 24.7475 -2.2575 27.0575 -2.9375 29.4375 C-0.9575 29.4375 1.0225 29.4375 3.0625 29.4375 C2.4025 27.1275 1.7425 24.8175 1.0625 22.4375 C0.4025 22.4375 -0.2575 22.4375 -0.9375 22.4375 Z " fill="#31AEE9" transform="translate(23.9375,0.5625)"/>
<path d="M0 0 C1.82421875 0.5546875 1.82421875 0.5546875 4 2 C5.1513412 4.42107225 6.02105077 6.59052545 6.8125 9.125 C7.03043213 9.80353027 7.24836426 10.48206055 7.47290039 11.18115234 C9.61730635 18.30867611 9.17264358 23.2316937 6 30 C3.69 30.33 1.38 30.66 -1 31 C-0.319375 31.495 0.36125 31.99 1.0625 32.5 C3.22813909 35.29437302 3.2491655 35.73181363 2.875 39.0625 C2.39140483 42.13509856 1.81170437 43.28244345 0 46 C-3.2578125 46.29296875 -3.2578125 46.29296875 -7.125 46.1875 C-9.04699219 46.14689453 -9.04699219 46.14689453 -11.0078125 46.10546875 C-11.99523437 46.07066406 -12.98265625 46.03585938 -14 46 C-15.75989094 40.88131244 -14.00886535 36.93377363 -12.32421875 32.05078125 C-11.89638847 30.77003975 -11.89638847 30.77003975 -11.45991516 29.46342468 C-10.85599406 27.6637223 -10.246255 25.86596313 -9.63110352 24.07006836 C-8.68875381 21.31616412 -7.7658406 18.55631709 -6.84570312 15.79492188 C-6.25634086 14.04649284 -5.66588342 12.2984325 -5.07421875 10.55078125 C-4.65845833 9.31017693 -4.65845833 9.31017693 -4.23429871 8.04450989 C-2.23218643 2.23218643 -2.23218643 2.23218643 0 0 Z " fill="#0B5AA3" transform="translate(15,1)"/>
<path d="M0 0 C2.6875 0.375 2.6875 0.375 4.4375 2.5 C6.49481916 7.23183407 7.99440027 11.15769546 7.6875 16.375 C5.99609375 17.125 5.99609375 17.125 3.6875 17.375 C-2.46082419 13.21613356 -7.34338859 7.59327454 -11.3125 1.375 C-7.54635053 0.85553111 -3.77742263 0.42763275 0 0 Z " fill="#0086EB" transform="translate(24.3125,29.625)"/>
<path d="M0 0 C4.2264331 2.81762207 4.80929049 6.2040867 6 11 C6.1875 14.0625 6.1875 14.0625 6 16 C5.01 15.67 4.02 15.34 3 15 C2.05078125 12.63671875 2.05078125 12.63671875 1.3125 9.6875 C1.06113281 8.72199219 0.80976563 7.75648437 0.55078125 6.76171875 C0 4 0 4 0 0 Z " fill="#057DD5" transform="translate(26,30)"/>
</svg>
