<?xml version="1.0" encoding="UTF-8"?>
<svg version="1.1" xmlns="http://www.w3.org/2000/svg" width="75" height="52">
<path d="M0 0 C6.73422878 4.06950169 11.35643888 10.55844045 14.625 17.5625 C15.47279713 18.64682987 16.34941516 19.70909741 17.25 20.75 C21.00135913 25.19239897 21.02814933 29.08988808 20.96875 34.703125 C20.24778539 40.70023969 17.17310172 44.33033741 12.5625 48 C7.73231333 50.56924823 3.48690325 50.73269128 -1.921875 50.765625 C-3.01692352 50.77417511 -3.01692352 50.77417511 -4.13409424 50.78289795 C-5.67727215 50.7923259 -7.22046999 50.79887315 -8.76367188 50.80273438 C-11.10323042 50.81240997 -13.44189849 50.84344045 -15.78125 50.875 C-17.28645316 50.88153408 -18.79166256 50.88678296 -20.296875 50.890625 C-20.986745 50.9029718 -21.67661499 50.9153186 -22.38739014 50.92803955 C-28.2650986 50.90160095 -33.83418717 49.68386176 -38.43359375 45.84375 C-38.88863281 45.2559375 -39.34367187 44.668125 -39.8125 44.0625 C-40.28558594 43.4746875 -40.75867188 42.886875 -41.24609375 42.28125 C-44.47302148 37.36828045 -43.9146626 31.19148072 -43.375 25.5625 C-41.6875 22.3125 -41.6875 22.3125 -39.375 19.5625 C-38.56672786 18.28115889 -37.77611957 16.98856776 -37 15.6875 C-36.12841036 14.3103357 -35.25333075 12.93537475 -34.375 11.5625 C-33.94574219 10.86511719 -33.51648437 10.16773438 -33.07421875 9.44921875 C-25.83773088 -1.37493635 -12.17181043 -5.17541546 0 0 Z M-20.375 14.5625 C-18.9828125 15.18125 -18.9828125 15.18125 -17.5625 15.8125 C-14.49445319 17.49691786 -13.18459535 18.64704083 -11.375 21.5625 C-13.685 23.8725 -15.995 26.1825 -18.375 28.5625 C-19.179375 27.82 -19.179375 27.82 -20 27.0625 C-23.09640596 25.10687518 -24.77353135 24.96225523 -28.375 25.5625 C-31.03384601 27.55270117 -31.03384601 27.55270117 -32.375 30.5625 C-31.96652808 33.78806523 -31.96652808 33.78806523 -30.375 36.5625 C-25.4230648 39.86379013 -19.49716618 38.93437267 -13.6965332 38.93310547 C-11.4486107 38.93747839 -9.20265321 38.97380369 -6.95507812 39.01171875 C-5.5234442 39.01758737 -4.09180097 39.02155646 -2.66015625 39.0234375 C-1.35957275 39.03165527 -0.05898926 39.03987305 1.28100586 39.04833984 C4.67361426 38.82234264 4.67361426 38.82234264 7.08422852 36.76025391 C8.97958399 34.51499624 8.97958399 34.51499624 8.5625 30.9375 C7.9499155 27.30733076 7.9499155 27.30733076 4.625 25.5625 C3.635 25.5625 2.645 25.5625 1.625 25.5625 C1.63402344 24.98242188 1.64304688 24.40234375 1.65234375 23.8046875 C1.48063803 19.28061498 1.00161491 16.24409839 -2.3125 13 C-6.10391433 10.18777325 -9.48876127 9.81755773 -14.12890625 10.0859375 C-17.18290546 10.73391646 -18.62455296 12.01639522 -20.375 14.5625 Z " fill="#5D98FE" transform="translate(49.375,1.4375)"/>
<path d="M0 0 C1.546875 0.99 1.546875 0.99 3.125 2 C3.125 6 3.125 6 1.953125 7.73828125 C1.17195313 8.51751953 1.17195313 8.51751953 0.375 9.3125 C-0.39070313 10.11107422 -0.39070313 10.11107422 -1.171875 10.92578125 C-2.875 12 -2.875 12 -4.76171875 11.6796875 C-5.45910156 11.45539062 -6.15648437 11.23109375 -6.875 11 C-8.55977425 10.88555246 -10.24889101 10.82523461 -11.9375 10.8125 C-12.79472656 10.79832031 -13.65195312 10.78414062 -14.53515625 10.76953125 C-17.14698309 10.84153915 -17.14698309 10.84153915 -19.875 13 C-18.946875 13.5775 -18.01875 14.155 -17.0625 14.75 C-13.875 17 -13.875 17 -10.875 21 C-13.515 23.64 -16.155 26.28 -18.875 29 C-20.195 28.01 -21.515 27.02 -22.875 26 C-25.91753508 25.41654524 -25.91753508 25.41654524 -28.875 26 C-31.04166667 27.5 -31.04166667 27.5 -31.875 30 C-31.125 33.08333333 -31.125 33.08333333 -29.875 36 C-29.875 39 -29.875 39 -31.40625 40.82421875 C-32.0559375 41.43910156 -32.705625 42.05398437 -33.375 42.6875 C-34.0246875 43.31011719 -34.674375 43.93273438 -35.34375 44.57421875 C-35.8490625 45.04472656 -36.354375 45.51523437 -36.875 46 C-43.55500661 39.67157268 -43.55500661 39.67157268 -44.2109375 34.1953125 C-44.2921504 27.81197851 -44.12506665 24.05413332 -39.875 19 C-39.06672786 17.71865889 -38.27611957 16.42606776 -37.5 15.125 C-36.62841036 13.7478357 -35.75333075 12.37287475 -34.875 11 C-34.44574219 10.30261719 -34.01648437 9.60523438 -33.57421875 8.88671875 C-26.21454 -2.12170214 -12.10239069 -5.98682092 0 0 Z " fill="#FEC520" transform="translate(49.875,2)"/>
<path d="M0 0 C1.546875 0.99 1.546875 0.99 3.125 2 C3.125 6 3.125 6 1.953125 7.73828125 C1.17195313 8.51751953 1.17195313 8.51751953 0.375 9.3125 C-0.39070313 10.11107422 -0.39070313 10.11107422 -1.171875 10.92578125 C-2.875 12 -2.875 12 -4.76171875 11.6796875 C-5.45910156 11.45539062 -6.15648438 11.23109375 -6.875 11 C-8.55977425 10.88555246 -10.24889101 10.82523461 -11.9375 10.8125 C-12.79472656 10.79832031 -13.65195312 10.78414062 -14.53515625 10.76953125 C-17.14698309 10.84153915 -17.14698309 10.84153915 -19.875 13 C-22.00784354 13.4254564 -24.1572084 13.77137662 -26.3125 14.0625 C-31.64120126 14.79378323 -31.64120126 14.79378323 -36.875 16 C-33.46649653 7.70815983 -29.65468078 2.81698727 -21.55078125 -1.1328125 C-14.77594195 -3.32845385 -6.39826247 -3.227746 0 0 Z " fill="#F4594E" transform="translate(49.875,2)"/>
<path d="M0 0 C0.78375 0.07476562 1.5675 0.14953125 2.375 0.2265625 C4.29470137 0.41385044 6.21049426 0.64048371 8.125 0.875 C8.125 4.835 8.125 8.795 8.125 12.875 C-9.91600228 13.42853075 -9.91600228 13.42853075 -16.875 9.875 C-13.6608324 1.51816425 -8.50611281 -1.09570267 0 0 Z " fill="#4CB151" transform="translate(29.875,39.125)"/>
</svg>
